<?xml version="1.0" standalone="no"?>
<!DOCTYPE svg PUBLIC "-//W3C//DTD SVG 20010904//EN"
 "http://www.w3.org/TR/2001/REC-SVG-20010904/DTD/svg10.dtd">
<svg version="1.0" xmlns="http://www.w3.org/2000/svg"
 width="1042.000000pt" height="1042.000000pt" viewBox="0 0 1042.000000 1042.000000"
 preserveAspectRatio="xMidYMid meet">
<metadata>
Created by potrace 1.11, written by Peter Selinger 2001-2013
</metadata>
<g transform="translate(0.000000,1042.000000) scale(0.100000,-0.100000)"
fill="#000000" stroke="none">
<path d="M4105 5658 c-25 -7 -58 -30 -91 -63 -75 -74 -84 -112 -84 -342 0
-199 9 -246 64 -318 66 -86 230 -115 341 -60 62 30 98 71 126 145 26 69 28
389 2 469 -20 62 -71 125 -127 153 -48 25 -168 33 -231 16z"/>
<path d="M6107 5656 c-132 -49 -177 -148 -177 -393 0 -208 22 -287 96 -353 54
-47 97 -62 183 -62 90 0 140 18 193 69 68 67 82 115 86 309 6 252 -23 341
-131 408 -41 25 -60 30 -130 33 -53 2 -95 -2 -120 -11z"/>
<path d="M4900 3450 c-272 -14 -297 -22 -286 -92 29 -182 418 -625 574 -654
54 -10 142 39 251 143 144 135 266 290 331 420 32 66 40 133 17 151 -33 28
-585 48 -887 32z"/>
</g>
</svg>
